<?xml version="1.0" encoding="UTF-8"?>
<svg width="40px" height="40px" viewBox="0 0 40 40" version="1.1" xmlns="http://www.w3.org/2000/svg" xmlns:xlink="http://www.w3.org/1999/xlink">
    <!-- Generator: Sketch 40.3 (33839) - http://www.bohemiancoding.com/sketch -->
    <title>Oval 1</title>
    <desc>Created with Sketch.</desc>
    <defs></defs>
    <g id="Page-1" stroke="none" stroke-width="1" fill="none" fill-rule="evenodd">
        <g id="MOBILE_HOME_STORY" transform="translate(-80.000000, -853.000000)" fill="#FFFFFF">
            <g id="Group" transform="translate(80.000000, 852.000000)">
                <path d="M20,41 C31.0456955,41 40,32.0456955 40,21 C40,9.95430446 31.0456955,1 20,1 C8.95430446,1 0,9.95430446 0,21 C0,32.0456955 8.95430446,41 20,41 Z M20,38.6 C29.7202121,38.6 37.6,30.7202121 37.6,21 C37.6,11.2797879 29.7202121,3.4 20,3.4 C10.2797879,3.4 2.4,11.2797879 2.4,21 C2.4,30.7202121 10.2797879,38.6 20,38.6 Z M21.4516157,29.8 L21.4516157,20.9989696 L24.0549959,20.9989696 L24.4,17.9660858 L21.4516157,17.9660858 L21.4560389,16.4480982 C21.4560389,15.6570754 21.5365767,15.2332273 22.754043,15.2332273 L24.3815703,15.2332273 L24.3815703,12.2 L21.7778216,12.2 C18.6503006,12.2 17.5494942,13.671275 17.5494942,16.1454967 L17.5494942,17.9664292 L15.6,17.9664292 L15.6,20.999313 L17.5494942,20.999313 L17.5494942,29.8 L21.4516157,29.8 Z" id="Oval-1"></path>
            </g>
        </g>
    </g>
</svg>