<?xml version="1.0" encoding="UTF-8"?>
<svg width="40px" height="40px" viewBox="0 0 40 40" version="1.1" xmlns="http://www.w3.org/2000/svg" xmlns:xlink="http://www.w3.org/1999/xlink">
    <!-- Generator: Sketch 40.3 (33839) - http://www.bohemiancoding.com/sketch -->
    <title>Oval 1</title>
    <desc>Created with Sketch.</desc>
    <defs></defs>
    <g id="Welcome-Page" stroke="none" stroke-width="1" fill="none" fill-rule="evenodd">
        <g id="MOBILE_HOME_VALUES" transform="translate(-80.000000, -857.000000)" fill="#5B3E26">
            <path d="M100,897 C111.045696,897 120,888.045696 120,877 C120,865.954304 111.045696,857 100,857 C88.9543045,857 80,865.954304 80,877 C80,888.045696 88.9543045,897 100,897 Z M100,894.6 C109.720212,894.6 117.6,886.720212 117.6,877 C117.6,867.279788 109.720212,859.4 100,859.4 C90.2797879,859.4 82.4,867.279788 82.4,877 C82.4,886.720212 90.2797879,894.6 100,894.6 Z M101.451616,885.8 L101.451616,876.99897 L104.054996,876.99897 L104.4,873.966086 L101.451616,873.966086 L101.456039,872.448098 C101.456039,871.657075 101.536577,871.233227 102.754043,871.233227 L104.38157,871.233227 L104.38157,868.2 L101.777822,868.2 C98.6503006,868.2 97.5494942,869.671275 97.5494942,872.145497 L97.5494942,873.966429 L95.6,873.966429 L95.6,876.999313 L97.5494942,876.999313 L97.5494942,885.8 L101.451616,885.8 Z" id="Oval-1"></path>
        </g>
    </g>
</svg>