<?xml version="1.0" encoding="UTF-8"?>
<svg width="40px" height="40px" viewBox="0 0 40 40" version="1.1" xmlns="http://www.w3.org/2000/svg" xmlns:xlink="http://www.w3.org/1999/xlink">
    <!-- Generator: Sketch 40.3 (33839) - http://www.bohemiancoding.com/sketch -->
    <title>Oval 1</title>
    <desc>Created with Sketch.</desc>
    <defs></defs>
    <g id="Welcome-Page" stroke="none" stroke-width="1" fill="none" fill-rule="evenodd">
        <g id="MOBILE_HOME_VALUES" transform="translate(-200.000000, -856.000000)" fill="#5B3E26">
            <path d="M220,856 C208.954304,856 200,864.954304 200,876 C200,887.045696 208.954304,896 220,896 C231.045696,896 240,887.045696 240,876 C240,864.954304 231.045696,856 220,856 Z M220,858.4 C210.279788,858.4 202.4,866.279788 202.4,876 C202.4,885.720212 210.279788,893.6 220,893.6 C229.720212,893.6 237.6,885.720212 237.6,876 C237.6,866.279788 229.720212,858.4 220,858.4 Z M228.76105,883.607733 C228.776128,883.526031 228.787184,883.443015 228.8,883.361051 L228.8,868.638949 C228.787687,868.558298 228.777133,868.477384 228.762055,868.396996 C228.608016,867.572359 227.957429,866.932404 227.158583,866.818127 C227.125413,866.813661 227.092997,866.806042 227.060329,866.8 L212.939671,866.8 C212.854484,866.816025 212.768795,866.82811 212.684864,866.848075 C211.905116,867.033809 211.328157,867.690314 211.217088,868.516265 C211.212564,868.55068 211.20578,868.584832 211.2,868.619246 L211.2,883.381542 C211.216082,883.475066 211.228898,883.569377 211.249001,883.662376 C211.421385,884.459429 212.072223,885.077316 212.846443,885.181348 C212.883885,885.186077 212.921578,885.193695 212.95902,885.2 L227.04098,885.2 C227.132449,885.183712 227.224169,885.170314 227.314633,885.149823 C228.033319,884.99036 228.62058,884.363541 228.76105,883.607733 Z M213.104265,882.479143 C213.104265,882.87084 213.428678,883.20763 213.80335,883.20763 C217.933528,883.207893 222.063456,883.207893 226.193635,883.20763 C226.571824,883.20763 226.894479,882.871365 226.894479,882.476779 C226.89473,879.756973 226.894479,877.03743 226.894479,874.317887 L226.894479,874.261405 L225.214363,874.261405 C225.45158,875.053992 225.524454,875.86024 225.431477,876.681987 C225.337997,877.503998 225.084699,878.269001 224.672083,878.97542 C224.259216,879.682627 223.723971,880.268464 223.06861,880.734769 C221.3699,881.944272 219.133431,882.050668 217.330938,880.99301 C216.419766,880.458926 215.704348,879.714152 215.20554,878.754483 C214.461474,877.322467 214.342615,875.81952 214.779103,874.260091 C214.221745,874.260617 213.666649,874.260617 213.104013,874.260617 L213.104013,874.310268 C213.104013,877.033227 213.103762,879.756185 213.104265,882.479143 Z M219.918206,879.726499 C221.910924,879.771159 223.522689,878.106648 223.564654,876.082227 C223.607624,873.994495 221.996865,872.270086 220.000126,872.271399 C218.048116,872.270086 216.461229,873.912005 216.433838,875.943518 C216.405694,878.029674 218.003135,879.683415 219.918206,879.726499 Z M226.894228,870.785266 C226.894479,870.20442 226.894479,869.623312 226.894228,869.042467 C226.894228,868.625814 226.57886,868.294278 226.180819,868.294015 C225.626728,868.293752 225.072637,868.293489 224.518294,868.294015 C224.121258,868.29454 223.804886,868.626865 223.804635,869.043518 C223.804383,869.619372 223.802876,870.195226 223.806645,870.771342 C223.807147,870.857247 223.822727,870.946568 223.848861,871.028007 C223.948372,871.334586 224.216999,871.522684 224.545936,871.52426 C224.813307,871.524786 225.080678,871.523998 225.3483,871.523998 C225.637785,871.520583 225.928274,871.526362 226.21801,871.519006 C226.590671,871.509286 226.894228,871.175385 226.894228,870.785266 Z" id="Oval-1"></path>
        </g>
    </g>
</svg>