<?xml version="1.0" encoding="UTF-8"?>
<svg width="40px" height="40px" viewBox="0 0 40 40" version="1.1" xmlns="http://www.w3.org/2000/svg" xmlns:xlink="http://www.w3.org/1999/xlink">
    <!-- Generator: Sketch 40.3 (33839) - http://www.bohemiancoding.com/sketch -->
    <title>Oval 1</title>
    <desc>Created with Sketch.</desc>
    <defs></defs>
    <g id="Page-1" stroke="none" stroke-width="1" fill="none" fill-rule="evenodd">
        <g id="MOBILE_HOME_STORY" transform="translate(-200.000000, -852.000000)" fill="#FFFFFF">
            <g id="Group" transform="translate(80.000000, 852.000000)">
                <path d="M140,0 C128.954304,0 120,8.95430446 120,20 C120,31.0456955 128.954304,40 140,40 C151.045696,40 160,31.0456955 160,20 C160,8.95430446 151.045696,0 140,0 Z M140,2.4 C130.279788,2.4 122.4,10.2797879 122.4,20 C122.4,29.7202121 130.279788,37.6 140,37.6 C149.720212,37.6 157.6,29.7202121 157.6,20 C157.6,10.2797879 149.720212,2.4 140,2.4 Z M148.76105,27.6077327 C148.776128,27.5260308 148.787184,27.4430154 148.8,27.3610508 L148.8,12.6389492 C148.787687,12.5582981 148.777133,12.4773844 148.762055,12.396996 C148.608016,11.5723587 147.957429,10.9324043 147.158583,10.8181268 C147.125413,10.8136608 147.092997,10.8060423 147.060329,10.8 L132.939671,10.8 C132.854484,10.8160251 132.768795,10.8281097 132.684864,10.8480754 C131.905116,11.0338093 131.328157,11.6903141 131.217088,12.516265 C131.212564,12.5506796 131.20578,12.5848315 131.2,12.6192461 L131.2,27.381542 C131.216082,27.4750657 131.228898,27.5693775 131.249001,27.6623758 C131.421385,28.4594289 132.072223,29.0773158 132.846443,29.1813478 C132.883885,29.1860765 132.921578,29.193695 132.95902,29.2 L147.04098,29.2 C147.132449,29.1837122 147.224169,29.1703141 147.314633,29.149823 C148.033319,28.9903598 148.62058,28.3635408 148.76105,27.6077327 Z M133.104265,26.4791433 C133.104265,26.8708395 133.428678,27.2076299 133.80335,27.2076299 C137.933528,27.2078926 142.063456,27.2078926 146.193635,27.2076299 C146.571824,27.2076299 146.894479,26.8713649 146.894479,26.476779 C146.89473,23.7569732 146.894479,21.03743 146.894479,18.3178869 L146.894479,18.2614049 L145.214363,18.2614049 C145.45158,19.053992 145.524454,19.8602399 145.431477,20.6819874 C145.337997,21.5039977 145.084699,22.2690006 144.672083,22.9754198 C144.259216,23.6826271 143.723971,24.2684637 143.06861,24.7347687 C141.3699,25.9442718 139.133431,26.0506682 137.330938,24.9930097 C136.419766,24.4589263 135.704348,23.7141519 135.20554,22.7544832 C134.461474,21.3224672 134.342615,19.8195203 134.779103,18.2600914 C134.221745,18.2606168 133.666649,18.2606168 133.104013,18.2606168 L133.104013,18.3102684 C133.104013,21.0332267 133.103762,23.756185 133.104265,26.4791433 Z M139.918206,23.7264991 C141.910924,23.7711593 143.522689,22.1066476 143.564654,20.0822273 C143.607624,17.9944946 141.996865,16.2700857 140.000126,16.2713992 C138.048116,16.2700857 136.461229,17.9120046 136.433838,19.943518 C136.405694,22.0296745 138.003135,23.6834152 139.918206,23.7264991 Z M146.894228,14.7852656 C146.894479,14.2044203 146.894479,13.6233124 146.894228,13.0424672 C146.894228,12.6258138 146.57886,12.2942776 146.180819,12.2940148 C145.626728,12.2937521 145.072637,12.2934894 144.518294,12.2940148 C144.121258,12.2945403 143.804886,12.6268646 143.804635,13.043518 C143.804383,13.6193718 143.802876,14.1952256 143.806645,14.7713421 C143.807147,14.8572473 143.822727,14.9465677 143.848861,15.0280069 C143.948372,15.334586 144.216999,15.5226842 144.545936,15.5242604 C144.813307,15.5247858 145.080678,15.5239977 145.3483,15.5239977 C145.637785,15.5205825 145.928274,15.5263621 146.21801,15.5190063 C146.590671,15.5092861 146.894228,15.1753855 146.894228,14.7852656 Z" id="Oval-1"></path>
            </g>
        </g>
    </g>
</svg>