<?xml version="1.0" encoding="UTF-8"?>
<svg width="21px" height="30px" viewBox="0 0 21 30" version="1.1" xmlns="http://www.w3.org/2000/svg" xmlns:xlink="http://www.w3.org/1999/xlink">
    <!-- Generator: Sketch 40.3 (33839) - http://www.bohemiancoding.com/sketch -->
    <title>Group 19</title>
    <desc>Created with Sketch.</desc>
    <defs></defs>
    <g id="Welcome-Page" stroke="none" stroke-width="1" fill="none" fill-rule="evenodd">
        <g id="GAUFFRE_SALÉE" transform="translate(-27.000000, -17.000000)">
            <g id="Group-19" transform="translate(27.000000, 17.000000)">
                <path d="M20.1611621,13.6464757 C20.1622245,13.8171029 20.135643,13.9977366 20.0786752,14.1846826 C20.0786752,14.1846826 18.9450868,18.1067848 18.1473311,19.5035919 C15.7927235,23.6263232 11.721958,28.5577113 11.721958,28.5577113 C11.042887,29.411717 9.89972031,29.4375469 9.189789,28.602861 C9.189789,28.602861 4.77248111,23.5757096 2.4467804,19.5035921 C1.62011775,18.0561713 0.765447168,14.2226199 0.765447168,14.2226199 C0.702890499,13.9709889 0.693663602,13.7301082 0.730668748,13.5089637 C0.259116315,12.3848701 0,11.1596954 0,9.87745548 C0,4.42228745 4.68999527,0 10.4753976,0 C16.2608,0 20.9507953,4.42228745 20.9507953,9.87745548 C20.9507953,11.2121759 20.6700343,12.4850641 20.1611621,13.6464757 Z" id="Combined-Shape" fill="#FFFFFF"></path>
                <ellipse id="Oval-5" stroke="#3F7D43" stroke-width="4" cx="10.5" cy="9.65493769" rx="3.86842105" ry="3.82554135"></ellipse>
            </g>
        </g>
    </g>
</svg>