<?xml version="1.0" encoding="UTF-8"?>
<svg width="40px" height="40px" viewBox="0 0 40 40" version="1.1" xmlns="http://www.w3.org/2000/svg" xmlns:xlink="http://www.w3.org/1999/xlink">
    <!-- Generator: Sketch 40.3 (33839) - http://www.bohemiancoding.com/sketch -->
    <title>LOC</title>
    <desc>Created with Sketch.</desc>
    <defs></defs>
    <g id="Welcome-Page" stroke="none" stroke-width="1" fill="none" fill-rule="evenodd">
        <g id="MOBILE_HOME_CONTACT_FULL" transform="translate(-140.000000, -914.000000)">
            <g id="LOC" transform="translate(140.000000, 914.000000)">
                <path d="M27.7361211,20.1457364 C27.7434816,20.3353986 27.7166126,20.5383 27.6518123,20.7491926 C27.6518123,20.7491926 26.9328399,23.2785615 26.3246167,24.3435122 C24.5294218,27.4867561 21.7163406,30.8768966 21.7163406,30.8768966 C21.0350541,31.7388634 19.8996744,31.7531126 19.1896384,30.9141523 C19.1896384,30.9141523 16.1273922,27.4481675 14.3542365,24.3435123 C13.7239741,23.2399729 13.1912242,20.7786048 13.1912242,20.7786048 C13.1240001,20.5132229 13.1160094,20.2597732 13.1589543,20.0287932 C12.7279689,19.1031402 12.4887674,18.0800968 12.4887674,17.0043739 C12.4887674,12.8452563 16.0645036,9.4736254 20.4753976,9.4736254 C24.8862917,9.4736254 28.4620279,12.8452563 28.4620279,17.0043739 C28.4620279,18.1256015 28.2021612,19.1895984 27.7361211,20.1457364 Z" id="Combined-Shape" fill="#5B3E26"></path>
                <ellipse id="Oval-5" stroke="#FCDCD1" stroke-width="4" cx="20.4936634" cy="16.9336618" rx="2.87206305" ry="2.84022753"></ellipse>
                <path d="M20,40 C31.0456955,40 40,31.0456955 40,20 C40,8.95430446 31.0456955,0 20,0 C8.95430446,0 0,8.95430446 0,20 C0,31.0456955 8.95430446,40 20,40 Z M20,37.6 C29.7202121,37.6 37.6,29.7202121 37.6,20 C37.6,10.2797879 29.7202121,2.4 20,2.4 C10.2797879,2.4 2.4,10.2797879 2.4,20 C2.4,29.7202121 10.2797879,37.6 20,37.6 Z" id="Oval-1-Copy" fill="#5B3E26"></path>
            </g>
        </g>
    </g>
</svg>