<?xml version="1.0" encoding="UTF-8"?>
<svg width="40px" height="40px" viewBox="0 0 40 40" version="1.1" xmlns="http://www.w3.org/2000/svg" xmlns:xlink="http://www.w3.org/1999/xlink">
    <!-- Generator: Sketch 40.3 (33839) - http://www.bohemiancoding.com/sketch -->
    <title>Combined Shape</title>
    <desc>Created with Sketch.</desc>
    <defs></defs>
    <g id="Page-1" stroke="none" stroke-width="1" fill="none" fill-rule="evenodd">
        <g id="MOBILE_HOME" transform="translate(-140.000000, -854.000000)" fill="#FFFFFF">
            <g id="Group" transform="translate(80.000000, 853.000000)">
                <path d="M87.1017247,19.9972161 C87.0936594,20.0232768 87.0849779,20.0494748 87.0756727,20.0757994 C87.0756727,20.0757994 87.4649567,19.4115539 86.8571429,20.5 C85.0631561,23.7125918 81.0138089,30.3834692 81.0138089,30.3834692 C80.4432279,31.3284647 79.5203815,31.3239961 78.9520191,30.376667 C78.9520191,30.376667 74.9148196,23.6731517 73.1428571,20.5 C73.0968123,20.4175449 73.0563221,20.3448868 73.0208206,20.281034 C72.3707881,19.1850025 72,17.9199438 72,16.5727159 C72,12.3904204 75.5733297,9 79.9812553,9 C84.389181,9 87.9625107,12.3904204 87.9625107,16.5727159 C87.9625107,17.805142 87.6522223,18.968806 87.1017247,19.9972161 Z M80,41 C91.0456955,41 100,32.0456955 100,21 C100,9.95430446 91.0456955,1 80,1 C68.9543045,1 60,9.95430446 60,21 C60,32.0456955 68.9543045,41 80,41 Z M80,38.6 C89.7202121,38.6 97.6,30.7202121 97.6,21 C97.6,11.2797879 89.7202121,3.4 80,3.4 C70.2797879,3.4 62.4,11.2797879 62.4,21 C62.4,30.7202121 70.2797879,38.6 80,38.6 Z M80,19.3350339 C81.6277866,19.3350339 82.9473684,18.0219231 82.9473684,16.4021189 C82.9473684,14.7823147 81.6277866,13.4692039 80,13.4692039 C78.3722134,13.4692039 77.0526316,14.7823147 77.0526316,16.4021189 C77.0526316,18.0219231 78.3722134,19.3350339 80,19.3350339 Z" id="Combined-Shape"></path>
            </g>
        </g>
    </g>
</svg>