<?xml version="1.0" encoding="UTF-8"?>
<svg width="25px" height="25px" viewBox="0 0 25 25" version="1.1" xmlns="http://www.w3.org/2000/svg" xmlns:xlink="http://www.w3.org/1999/xlink">
    <!-- Generator: Sketch 40.3 (33839) - http://www.bohemiancoding.com/sketch -->
    <title>Button / Small / menu</title>
    <desc>Created with Sketch.</desc>
    <defs>
        <polygon id="path-1" points="7.84290776 10.1243637 7.84290776 0.0612066899 0.0645160413 0.0612066899 0.0645160413 10.1243637 7.84290776 10.1243637"></polygon>
    </defs>
    <g id="Page-1" stroke="none" stroke-width="1" fill="none" fill-rule="evenodd">
        <g id="GAUFFRE_SALÉE-Copy" transform="translate(-270.000000, -24.000000)">
            <g id="Button-/-Small-/-menu" transform="translate(270.000000, 24.000000)">
                <path d="M25,2.44318182 C25,3.79181818 24.1171053,4.88636364 23.0263158,4.88636364 L1.97368421,4.88636364 C0.882894737,4.88636364 0,3.79181818 0,2.44318182 C0,1.09454545 0.882894737,0 1.97368421,0 L23.0263158,0 C24.1184211,0 25,1.09454545 25,2.44318182 Z M25,21.9886364 C25,23.3372727 24.1171053,24.4318182 23.0263158,24.4318182 L1.97368421,24.4318182 C0.882894737,24.4318182 0,23.3372727 0,21.9886364 C0,20.64 0.882894737,19.5454545 1.97368421,19.5454545 L23.0263158,19.5454545 C24.1184211,19.5454545 25,20.64 25,21.9886364 Z" id="menu" fill="#FFFFFF"></path>
                <g id="Page-1" stroke-width="1" transform="translate(3.000000, 7.000000)">
                    <g id="Group-3" transform="translate(11.642023, 0.340037)">
                        <mask id="mask-2" fill="white">
                            <use xlink:href="#path-1"></use>
                        </mask>
                        <g id="Clip-2"></g>
                        <path d="M1.89881388,6.35705874 C1.90898842,6.33578724 1.91906513,6.31461801 1.92914184,6.29344878 C1.43606794,5.91444796 0.936047964,5.54485568 0.451583294,5.15429871 C-0.0803299557,4.72539168 -0.0418819316,4.3585606 0.558415971,4.06658884 C1.4986805,3.6093539 2.44285831,3.16101618 3.3650239,2.64896623 C2.31900285,2.97560644 1.27307963,3.30234892 0.237722274,3.62581886 C0.0157411885,3.16306151 0.121791209,2.88919098 0.399047444,2.59629881 C1.63437365,1.29106743 3.1682835,0.663353708 4.86205104,0.382733562 C5.56771413,0.265740324 6.27611653,0.166643778 6.97180075,0.0612066899 C8.19861557,3.44521566 8.1423621,6.76684188 6.72242667,10.1243637 C6.44654009,10.0641286 6.10500815,9.98047433 5.76044342,9.91573944 C3.68121732,9.5256938 1.95956763,8.47704985 0.52055494,6.8727903 C0.173740066,6.4860172 -0.0959830953,6.13278761 0.175501044,5.55416196 C0.754862873,5.82404409 1.32698512,6.09044915 1.89881388,6.35705874 Z" id="Fill-1" fill="#FFFFFF" mask="url(#mask-2)"></path>
                    </g>
                    <path d="M5.60351091,3.31001893 C5.59773881,3.32566575 5.59186889,3.34141484 5.58609679,3.35716393 C6.12857591,3.58307133 6.68113174,3.78668456 7.20756639,4.04797628 C7.37397883,4.13060787 7.55614224,4.3551858 7.58001328,4.53660713 C7.62257025,4.85915667 7.74016446,5.24500937 7.30119173,5.45619035 C6.87513283,5.66123532 6.47548861,5.92631091 6.07770321,6.21674867 C6.59014786,6.08574487 7.10259252,5.95484335 7.62345074,5.82158969 C7.82107163,6.31247041 7.81637568,6.64453076 7.37730512,6.95204708 C5.97439248,7.93493346 4.64612576,9.05332337 2.95196689,9.47179918 C2.43052168,9.60065537 1.90350004,9.70435392 1.37931553,9.8209381 C1.10362461,9.88219592 0.952865306,9.7993598 0.829303335,9.49746815 C-0.453960614,6.36166075 -0.176410883,3.30071265 1.17015045,0.2719786 C1.33088863,-0.089636865 1.58417599,0.00311913792 1.8229842,0.0331855821 C3.57623367,0.254900041 5.13929749,0.965040818 6.53761201,2.08148766 C6.82191216,2.30851999 7.0824391,2.56827771 7.36859806,2.79244657 C7.6671817,3.02643305 7.78585206,3.29304264 7.55643574,3.73401715 C6.92199442,3.59626375 6.26270375,3.45309021 5.60351091,3.31001893 Z" id="Fill-4" fill="#FFFFFF"></path>
                    <path d="M11.4155901,6.75518346 C10.4868698,6.75518346 9.58143349,6.75610386 8.67609503,6.75477439 C8.20288105,6.75405852 7.92014622,6.54533195 7.92259202,6.01027196 C7.92699447,5.08322327 7.92386384,4.15617457 7.92386384,3.21092238 L11.408644,3.21092238 C11.6941182,4.3983424 11.5381738,5.48707493 11.4155901,6.75518346" id="Fill-6" fill="#FFFFFF"></path>
                </g>
            </g>
        </g>
    </g>
</svg>